<mxfile host="app.diagrams.net" modified="2024-07-27T17:47:40.663Z" agent="Mozilla/5.0 (Windows NT 10.0; Win64; x64) AppleWebKit/537.36 (KHTML, like Gecko) Chrome/127.0.0.0 Safari/537.36" version="21.6.1" etag="WLsaMFBUlmCPTdIJK9Ed" type="github">
  <diagram name="Page-1" id="_RUjiiI2w5oqi4c7_WLW">
    <mxGraphModel>
      <root>
        <mxCell id="0" />
        <mxCell id="1" parent="0" />
      </root>
    </mxGraphModel>
  </diagram>
</mxfile>
